# xmcd CD database file
# Copyright (C) 1993-1998 Ti Kan
# 
# Track frame offsets:
#     150
#     11159
#     29999
#     51082
#     63384
#     82754
#     93443
#     118870
#     131275
#     146385
# 
# Disc length: 2483 seconds
# 
# Revision: 1
# Processed by: cddbd v1.4b41PL1 Copyright (c) Steve Scherf et al.
# Submitted via: DiscPlay 4.0.4
# 
DISCID=8409b10a
DTITLE=Stevie Ray Vaughan - In Step
DYEAR=1900
DGENRE=
TTITLE0=The House Is Rockin'
TTITLE1=Crossfire
TTITLE2=Tightrope
TTITLE3=Let Me Love You Baby
TTITLE4=Leave My Girl Alone
TTITLE5=Travis Walk
TTITLE6=Wall Of Denial
TTITLE7=Scratch 'n Sniff
TTITLE8=Love Me Darlin
TTITLE9=Riviera Paradise
EXTD=
EXTT0=
EXTT1=
EXTT2=
EXTT3=
EXTT4=
EXTT5=
EXTT6=
EXTT7=
EXTT8=
EXTT9=
PLAYORDER=
